<svg height="300" width="800" xmlns="http://www.w3.org/2000/svg">

<rect width="800" height="300" x="0" y="0" rx="0" ry="0" fill="#ffffff"/>

<!-- Vim box -->
<rect width="200" height="280" x="50" y="10" rx="10" ry="10" fill="#e6ffe6"
  stroke-width="2" stroke="black"/>
<path d="M 50,130 L 250,130" stroke-width="1" stroke="black"/>

<!-- R box -->
<rect width="200" height="280" x="550" y="10" rx="10" ry="10" fill="#e6e6ff"
  stroke-width="2" stroke="black" />
<path d="M 550,130 L 750,130" stroke-width="1" stroke="black"/>

<!-- Arrow from Vim to vimrserver -->
<path d="M 40,180  c -30,0 -30,-100  0,-100"
  stroke-width="2" stroke="#00aa00" fill="none" />
<path d="M 42,78 l -8,-4 l 4,6, -4,6 12,-6" fill="#00aa00" stroke="none" />

<!-- Arrow from vimcom to R Console -->
<path d="M 760,180  c 30,0 30,-100  0,-100"
  stroke-width="2" stroke="black" fill="none" />
<path d="M 758,182 l 8,4 l -4,-6, 4,-6 -12,6" fill="black" stroke="none" />

<!-- Arrow from vimrserver to vimcom -->
<path d="M 260,40 L 540,40" stroke-width="2" stroke="red" fill="none" />
<path d="M 542,38 l -8,-4 l 4,6, -4,6 12,-6" fill="red" stroke="none" />

<!-- Arrow from vimcom to vimrserver -->
<path d="M 260,60 L 540,60" stroke-width="2" stroke="red" fill="none" />
<path d="M 258,62 l 8,4 l -4,-6, 4,-6 -12,6" fill="red" stroke="none" />

<!-- Arrow from Vim to R -->
<path d="M 260,250 L 540,250" stroke-width="2" stroke="black" fill="none" />
<path d="M 542,248 l -8,-4 l 4,6, -4,6 12,-6" fill="black" stroke="none" />

<!-- Arrow from Vim to vimcom -->
<path d="M 260,220 C 450,220 450,110 540,110"
  stroke-width="2" stroke="black" fill="none" />
<path d="M 542,108 l -8,-4 l 4,6, -4,6 12,-6" fill="black" stroke="none" />

<!-- Arrows from vimcom to Vim -->
<path d="M 260,185 C 280,185 320,185 370,165"
  stroke-width="2" stroke="blue" fill="none" />
<path d="M 258,187 l 8,4 l -4,-6, 4,-6 -12,6" fill="blue" stroke="none" />

<path d="M 440,135 C 490,95 520,85 540,85"
  stroke-width="2" stroke="blue" fill="none" />
<path d="M 442,136 l 8,4 l -4,-6, 4,-6 -12,6" transform="rotate(-35, 442, 136)"
  fill="blue" stroke="none" />


<!-- Text -->
<g font-size="20" font-family="sans-serif" fill="#008800" text-anchor="middle">
  <text x="150" y="50">vimrserver</text>
  <text x="150" y="70">TCP server</text>
</g>
<g font-size="25" font-family="sans-serif" fill="#008800" text-anchor="middle">
  <text x="150" y="200">Vim Editor</text>
</g>
<g font-size="20" font-family="sans-serif" fill="#000088" text-anchor="middle">
  <text x="650" y="50">vimcom</text>
  <text x="650" y="70">TCP client</text>
</g>
<g font-size="25" font-family="sans-serif" fill="#000088" text-anchor="middle">
  <text x="650" y="200">R Console</text>
</g>

<g font-size="15" font-family="sans-serif" fill="blue" text-anchor="middle">
<text x="400" y="150">temporary</text>
<text x="400" y="170">files</text>
</g>
<g font-size="15" font-family="sans-serif" fill="black" text-anchor="middle">
<text x="400" y="240">via chansend() or Tmux</text>
<text x="415" y="202" transform="rotate(-30, 415, 202)">with</text>
<text x="445" y="182" transform="rotate(-40, 445, 182)">Rgui</text>
</g>

</svg>
